<svg id="visual" viewBox="0 0 960 300" width="960" height="300" xmlns="http://www.w3.org/2000/svg" xmlns:xlink="http://www.w3.org/1999/xlink" version="1.1"><path d="M0 22L14.5 26.5C29 31 58 40 87.2 43C116.3 46 145.7 43 174.8 40.5C204 38 233 36 262 40C291 44 320 54 349 58.5C378 63 407 62 436.2 57C465.3 52 494.7 43 523.8 38C553 33 582 32 611 35C640 38 669 45 698 46.5C727 48 756 44 785.2 43.5C814.3 43 843.7 46 872.8 47C902 48 931 47 945.5 46.5L960 46L960 0L945.5 0C931 0 902 0 872.8 0C843.7 0 814.3 0 785.2 0C756 0 727 0 698 0C669 0 640 0 611 0C582 0 553 0 523.8 0C494.7 0 465.3 0 436.2 0C407 0 378 0 349 0C320 0 291 0 262 0C233 0 204 0 174.8 0C145.7 0 116.3 0 87.2 0C58 0 29 0 14.5 0L0 0Z" fill="#0066ff"></path><path d="M0 76L14.5 79.5C29 83 58 90 87.2 95C116.3 100 145.7 103 174.8 103C204 103 233 100 262 99.5C291 99 320 101 349 107C378 113 407 123 436.2 123C465.3 123 494.7 113 523.8 110C553 107 582 111 611 112C640 113 669 111 698 107C727 103 756 97 785.2 100C814.3 103 843.7 115 872.8 113.5C902 112 931 97 945.5 89.5L960 82L960 44L945.5 44.5C931 45 902 46 872.8 45C843.7 44 814.3 41 785.2 41.5C756 42 727 46 698 44.5C669 43 640 36 611 33C582 30 553 31 523.8 36C494.7 41 465.3 50 436.2 55C407 60 378 61 349 56.5C320 52 291 42 262 38C233 34 204 36 174.8 38.5C145.7 41 116.3 44 87.2 41C58 38 29 29 14.5 24.5L0 20Z" fill="#195af7"></path><path d="M0 169L14.5 168C29 167 58 165 87.2 172C116.3 179 145.7 195 174.8 203C204 211 233 211 262 211C291 211 320 211 349 209C378 207 407 203 436.2 192C465.3 181 494.7 163 523.8 166.5C553 170 582 195 611 201.5C640 208 669 196 698 181C727 166 756 148 785.2 153C814.3 158 843.7 186 872.8 189.5C902 193 931 172 945.5 161.5L960 151L960 80L945.5 87.5C931 95 902 110 872.8 111.5C843.7 113 814.3 101 785.2 98C756 95 727 101 698 105C669 109 640 111 611 110C582 109 553 105 523.8 108C494.7 111 465.3 121 436.2 121C407 121 378 111 349 105C320 99 291 97 262 97.5C233 98 204 101 174.8 101C145.7 101 116.3 98 87.2 93C58 88 29 81 14.5 77.5L0 74Z" fill="#274eef"></path><path d="M0 253L14.5 253C29 253 58 253 87.2 254C116.3 255 145.7 257 174.8 259.5C204 262 233 265 262 266.5C291 268 320 268 349 270.5C378 273 407 278 436.2 277.5C465.3 277 494.7 271 523.8 270.5C553 270 582 275 611 272.5C640 270 669 260 698 256C727 252 756 254 785.2 259C814.3 264 843.7 272 872.8 272.5C902 273 931 266 945.5 262.5L960 259L960 149L945.5 159.5C931 170 902 191 872.8 187.5C843.7 184 814.3 156 785.2 151C756 146 727 164 698 179C669 194 640 206 611 199.5C582 193 553 168 523.8 164.5C494.7 161 465.3 179 436.2 190C407 201 378 205 349 207C320 209 291 209 262 209C233 209 204 209 174.8 201C145.7 193 116.3 177 87.2 170C58 163 29 165 14.5 166L0 167Z" fill="#3240e6"></path><path d="M0 301L14.5 301C29 301 58 301 87.2 301C116.3 301 145.7 301 174.8 301C204 301 233 301 262 301C291 301 320 301 349 301C378 301 407 301 436.2 301C465.3 301 494.7 301 523.8 301C553 301 582 301 611 301C640 301 669 301 698 301C727 301 756 301 785.2 301C814.3 301 843.7 301 872.8 301C902 301 931 301 945.5 301L960 301L960 257L945.5 260.5C931 264 902 271 872.8 270.5C843.7 270 814.3 262 785.2 257C756 252 727 250 698 254C669 258 640 268 611 270.5C582 273 553 268 523.8 268.5C494.7 269 465.3 275 436.2 275.5C407 276 378 271 349 268.5C320 266 291 266 262 264.5C233 263 204 260 174.8 257.5C145.7 255 116.3 253 87.2 252C58 251 29 251 14.5 251L0 251Z" fill="#3c31dd"></path></svg>