<svg id="visual" viewBox="0 0 960 300" width="960" height="300" xmlns="http://www.w3.org/2000/svg" xmlns:xlink="http://www.w3.org/1999/xlink" version="1.1"><rect x="0" y="0" width="960" height="300" fill="#0f0f10"></rect><path d="M0 119L22.8 114.5C45.7 110 91.3 101 137 101.3C182.7 101.7 228.3 111.3 274 116.7C319.7 122 365.3 123 411.2 117C457 111 503 98 548.8 94.8C594.7 91.7 640.3 98.3 686 98.3C731.7 98.3 777.3 91.7 823 90.2C868.7 88.7 914.3 92.3 937.2 94.2L960 96L960 0L937.2 0C914.3 0 868.7 0 823 0C777.3 0 731.7 0 686 0C640.3 0 594.7 0 548.8 0C503 0 457 0 411.2 0C365.3 0 319.7 0 274 0C228.3 0 182.7 0 137 0C91.3 0 45.7 0 22.8 0L0 0Z" fill="#fa7268"></path><path d="M0 101L22.8 95.8C45.7 90.7 91.3 80.3 137 79.8C182.7 79.3 228.3 88.7 274 88.2C319.7 87.7 365.3 77.3 411.2 71C457 64.7 503 62.3 548.8 65C594.7 67.7 640.3 75.3 686 78.3C731.7 81.3 777.3 79.7 823 82.2C868.7 84.7 914.3 91.3 937.2 94.7L960 98L960 0L937.2 0C914.3 0 868.7 0 823 0C777.3 0 731.7 0 686 0C640.3 0 594.7 0 548.8 0C503 0 457 0 411.2 0C365.3 0 319.7 0 274 0C228.3 0 182.7 0 137 0C91.3 0 45.7 0 22.8 0L0 0Z" fill="#f3665b"></path><path d="M0 70L22.8 67.2C45.7 64.3 91.3 58.7 137 59.7C182.7 60.7 228.3 68.3 274 71.7C319.7 75 365.3 74 411.2 72.5C457 71 503 69 548.8 64.2C594.7 59.3 640.3 51.7 686 50.8C731.7 50 777.3 56 823 59.5C868.7 63 914.3 64 937.2 64.5L960 65L960 0L937.2 0C914.3 0 868.7 0 823 0C777.3 0 731.7 0 686 0C640.3 0 594.7 0 548.8 0C503 0 457 0 411.2 0C365.3 0 319.7 0 274 0C228.3 0 182.7 0 137 0C91.3 0 45.7 0 22.8 0L0 0Z" fill="#ec594d"></path><path d="M0 49L22.8 49.5C45.7 50 91.3 51 137 50.7C182.7 50.3 228.3 48.7 274 46C319.7 43.3 365.3 39.7 411.2 41.3C457 43 503 50 548.8 53.2C594.7 56.3 640.3 55.7 686 54.8C731.7 54 777.3 53 823 50C868.7 47 914.3 42 937.2 39.5L960 37L960 0L937.2 0C914.3 0 868.7 0 823 0C777.3 0 731.7 0 686 0C640.3 0 594.7 0 548.8 0C503 0 457 0 411.2 0C365.3 0 319.7 0 274 0C228.3 0 182.7 0 137 0C91.3 0 45.7 0 22.8 0L0 0Z" fill="#e54c3f"></path><path d="M0 36L22.8 35C45.7 34 91.3 32 137 29.8C182.7 27.7 228.3 25.3 274 25C319.7 24.7 365.3 26.3 411.2 25.2C457 24 503 20 548.8 20.3C594.7 20.7 640.3 25.3 686 28.2C731.7 31 777.3 32 823 32.2C868.7 32.3 914.3 31.7 937.2 31.3L960 31L960 0L937.2 0C914.3 0 868.7 0 823 0C777.3 0 731.7 0 686 0C640.3 0 594.7 0 548.8 0C503 0 457 0 411.2 0C365.3 0 319.7 0 274 0C228.3 0 182.7 0 137 0C91.3 0 45.7 0 22.8 0L0 0Z" fill="#dd3f31"></path></svg>